<svg width="96" height="96" viewBox="0 0 96 96" fill="none" xmlns="http://www.w3.org/2000/svg">
<path d="M49.8472 11.6196C49.8472 11.2134 49.7033 10.9002 49.4155 10.6802C49.132 10.4601 48.6178 10.238 47.873 10.0137C47.1283 9.78939 46.5358 9.53971 46.0957 9.26465C45.2536 8.73568 44.8325 8.0459 44.8325 7.19531C44.8325 6.45052 45.1351 5.83691 45.7402 5.35449C46.3496 4.87207 47.1388 4.63086 48.1079 4.63086C48.7511 4.63086 49.3245 4.74935 49.8281 4.98633C50.3317 5.22331 50.7274 5.56185 51.0151 6.00195C51.3029 6.43783 51.4468 6.92236 51.4468 7.45557H49.8472C49.8472 6.97314 49.6948 6.59652 49.3901 6.32568C49.0897 6.05062 48.658 5.91309 48.0952 5.91309C47.5705 5.91309 47.1621 6.02523 46.8701 6.24951C46.5824 6.4738 46.4385 6.78695 46.4385 7.18896C46.4385 7.52751 46.5951 7.81104 46.9082 8.03955C47.2214 8.26383 47.7376 8.48389 48.457 8.69971C49.1764 8.9113 49.7541 9.15462 50.1899 9.42969C50.6258 9.70052 50.9453 10.0137 51.1484 10.3691C51.3516 10.7204 51.4531 11.133 51.4531 11.6069C51.4531 12.3771 51.1569 12.9907 50.5645 13.4478C49.9762 13.9006 49.1764 14.127 48.165 14.127C47.4964 14.127 46.8807 14.0042 46.3179 13.7588C45.7593 13.5091 45.3234 13.1663 45.0103 12.7305C44.7013 12.2946 44.5469 11.7868 44.5469 11.207H46.1528C46.1528 11.7318 46.3263 12.138 46.6733 12.4258C47.0203 12.7135 47.5176 12.8574 48.165 12.8574C48.7236 12.8574 49.1426 12.7453 49.4219 12.521C49.7054 12.2925 49.8472 11.992 49.8472 11.6196Z" fill="#254C63"/>
<path d="M65.0506 13.7958L61.5437 12.3432L60.4554 14.9705L64.5547 16.6685L64.064 17.8531L58.481 15.5405L62.0178 7.00188L67.5598 9.29742L67.0642 10.4938L63.006 8.8128L62.0295 11.1703L65.5364 12.6229L65.0506 13.7958Z" fill="#254C63"/>
<path d="M76.8407 22.9258L74.1566 20.2416L72.1457 22.2525L75.2832 25.3899L74.3765 26.2966L70.1035 22.0236L76.6387 15.4884L80.8803 19.73L79.9647 20.6456L76.8586 17.5396L75.0543 19.344L77.7384 22.0281L76.8407 22.9258Z" fill="#254C63"/>
<path d="M82 51.6562V50.0566H86.1069V45.9243H82V44.3184H91.2422V45.9243H87.3955V50.0566H91.2422V51.6562H82Z" fill="#254C63"/>
<path d="M81.8984 66.4453C81.0617 66.0987 80.3866 65.6496 79.8731 65.0979C79.3635 64.5479 79.0503 63.9326 78.9337 63.2522C78.8193 62.5773 78.9071 61.89 79.1969 61.1901C79.4836 60.4981 79.9076 59.9501 80.4689 59.5459C81.0325 59.1472 81.6886 58.9289 82.4372 58.8909C83.1842 58.8568 83.9671 59.007 84.7858 59.3415L85.2667 59.5407C86.0995 59.8857 86.7738 60.3367 87.2896 60.8939C87.8038 61.455 88.1181 62.073 88.2324 62.7479C88.3491 63.4283 88.2633 64.1165 87.975 64.8124C87.6868 65.5083 87.2636 66.0545 86.7055 66.4508C86.1497 66.8527 85.4964 67.0699 84.7454 67.1024C83.9984 67.1365 83.2078 66.983 82.3734 66.642L81.8984 66.4453ZM82.9586 65.1462C83.9048 65.5381 84.7045 65.6586 85.3578 65.5078C86.0095 65.361 86.4714 64.9591 86.7435 64.3023C87.0091 63.6611 86.965 63.0543 86.6113 62.4818C86.2598 61.9148 85.6263 61.4371 84.7108 61.0487L84.2182 60.8447C83.2799 60.456 82.4793 60.3374 81.8166 60.4889C81.1522 60.6442 80.6856 61.0464 80.4167 61.6954C80.1447 62.3522 80.186 62.9602 80.5407 63.5194C80.8937 64.0824 81.5512 64.5632 82.5129 64.9615L82.9586 65.1462Z" fill="#254C63"/>
<path d="M71.7398 75.5737L75.6538 81.4985L74.5272 82.6251L69.5001 74.5818L70.5863 73.4956L76.6009 77.0235L73.0999 70.982L74.1906 69.8913L82.2339 74.9184L81.1073 76.045L75.1825 72.149L78.8451 78.3072L77.8935 79.2588L71.7398 75.5737Z" fill="#254C63"/>
<path d="M47.2002 82H48.7998V91.2422H47.2002V82Z" fill="#254C63"/>
<path d="M28.5605 85.3508L31.2229 86.4536L34.2642 79.1113L35.7362 79.721L32.6949 87.0633L35.3339 88.1564L34.8384 89.3528L28.0649 86.5471L28.5605 85.3508Z" fill="#254C63"/>
<path d="M13.4453 59.3817L6.47367 60.7304L5.86395 59.2584L15.2188 57.6921L15.8067 59.1113L10.2456 63.3179L17.167 62.3954L17.7573 63.8204L10.0348 69.3277L9.42508 67.8557L15.2918 63.8729L8.20079 64.9001L7.68581 63.6568L13.4453 59.3817Z" fill="#254C63"/>
<path d="M9.62012 44.1724C10.5257 44.1724 11.3213 44.3289 12.0068 44.6421C12.6882 44.9552 13.2129 45.4038 13.5811 45.9878C13.945 46.5675 14.127 47.2362 14.127 47.9937C14.127 48.7427 13.945 49.4113 13.5811 49.9995C13.2129 50.5835 12.6903 51.0363 12.0132 51.3579C11.3361 51.6753 10.5553 51.8361 9.6709 51.8403H9.15039C8.24902 51.8403 7.45345 51.6816 6.76367 51.3643C6.07389 51.0426 5.54704 50.592 5.18311 50.0122C4.81494 49.4282 4.63086 48.7596 4.63086 48.0063C4.63086 47.2531 4.81283 46.5866 5.17676 46.0068C5.53646 45.4229 6.05697 44.9722 6.73828 44.6548C7.41536 44.3374 8.20459 44.1766 9.10596 44.1724H9.62012ZM9.1377 45.7783C8.11361 45.7783 7.32861 45.973 6.78271 46.3623C6.23682 46.7474 5.96387 47.2954 5.96387 48.0063C5.96387 48.7004 6.23682 49.2441 6.78271 49.6377C7.32438 50.027 8.09245 50.2259 9.08691 50.2344H9.62012C10.6357 50.2344 11.4207 50.0376 11.9751 49.644C12.5295 49.2463 12.8066 48.6961 12.8066 47.9937C12.8066 47.2827 12.5358 46.7368 11.9941 46.356C11.4525 45.9709 10.6611 45.7783 9.62012 45.7783H9.1377Z" fill="#254C63"/>
<path d="M13.497 33.1465L12.812 34.8002L16.1019 36.163L15.4874 37.6467L6.94871 34.1099L8.19243 31.1073C8.60052 30.122 9.1364 29.4531 9.80005 29.1005C10.4637 28.7478 11.2139 28.7448 12.0505 29.0914C12.6213 29.3278 13.0428 29.665 13.3148 30.1029C13.5846 30.5353 13.7211 31.0407 13.7243 31.6191L18.0783 31.1759L18.1546 31.2075L17.4963 32.7968L13.497 33.1465ZM11.6215 34.3071L12.2531 32.7824C12.4604 32.2819 12.4972 31.8391 12.3636 31.454C12.226 31.0672 11.9383 30.7832 11.5005 30.6018C11.043 30.4123 10.635 30.3967 10.2762 30.555C9.91914 30.7094 9.6298 31.043 9.40821 31.5559L8.75963 33.1217L11.6215 34.3071Z" fill="#254C63"/>
<path d="M20.9494 21.3247L20.9943 22.8508L23.032 24.8885L21.8965 26.0241L15.3612 19.4889L16.4968 18.3533L19.5625 21.4189L19.4143 20.0141L19.0373 15.8128L20.4108 14.4394L20.8776 19.7627L27.0851 20.8354L25.7386 22.182L20.9494 21.3247Z" fill="#254C63"/>
<path d="M35.7845 13.6822C35.629 13.3069 35.3763 13.0726 35.0262 12.9794C34.68 12.8846 34.12 12.8761 33.3461 12.9539C32.5721 13.0318 31.9292 13.0278 31.4174 12.9421C30.4369 12.7757 29.784 12.2995 29.4585 11.5137C29.1734 10.8256 29.2182 10.1429 29.5926 9.46562C29.971 8.78672 30.6078 8.26185 31.5031 7.891C32.0974 7.64484 32.6725 7.53488 33.2284 7.56111C33.7844 7.58734 34.2795 7.74869 34.7138 8.04518C35.1464 8.33775 35.4648 8.73034 35.6688 9.22296L34.191 9.8351C34.0064 9.3894 33.7215 9.09974 33.3363 8.96612C32.9535 8.82698 32.5021 8.86509 31.9821 9.08048C31.4973 9.28129 31.1629 9.54117 30.979 9.86012C30.799 10.1775 30.7859 10.5218 30.9397 10.8932C31.0693 11.206 31.3224 11.408 31.6992 11.4993C32.0744 11.5867 32.6355 11.5924 33.3828 11.5165C34.1284 11.4367 34.7552 11.4405 35.2631 11.5278C35.7695 11.6112 36.1845 11.7782 36.5082 12.0289C36.8302 12.2757 37.082 12.618 37.2633 13.0559C37.5581 13.7674 37.5192 14.4477 37.1468 15.0967C36.7766 15.7401 36.1243 16.2553 35.1899 16.6424C34.5722 16.8983 33.9564 17.0205 33.3425 17.0091C32.7309 16.9922 32.197 16.8423 31.7409 16.5595C31.2887 16.275 30.9516 15.865 30.7298 15.3293L32.2135 14.7148C32.4143 15.1996 32.7301 15.5085 33.1608 15.6416C33.5915 15.7746 34.1059 15.7173 34.7041 15.4695C35.2202 15.2557 35.5643 14.9918 35.7365 14.6777C35.911 14.3581 35.927 14.0262 35.7845 13.6822Z" fill="#254C63"/>
</svg>
