<svg width="178" height="245" viewBox="0 0 178 245" fill="none" xmlns="http://www.w3.org/2000/svg">
<g filter="url(#filter0_d_2_447)">
<rect x="103" y="8" width="55" height="55" rx="20" fill="#F9FDFF"/>
</g>
<path d="M130 24C123.938 24 119 28.9378 119 35C119 41.0622 123.938 46 130 46C136.062 46 141 41.0622 141 35C141 28.9378 136.062 24 130 24ZM130 44.0444C125.013 44.0444 120.956 39.9867 120.956 35C120.956 30.0133 125.013 25.9556 130 25.9556C134.987 25.9556 139.044 30.0133 139.044 35C139.044 39.9867 134.987 44.0444 130 44.0444Z" fill="#84848D"/>
<path d="M129.996 30.3067C130.671 30.3067 131.218 29.7595 131.218 29.0845C131.218 28.4095 130.671 27.8623 129.996 27.8623C129.321 27.8623 128.773 28.4095 128.773 29.0845C128.773 29.7595 129.321 30.3067 129.996 30.3067Z" fill="#84848D"/>
<path d="M130 32.14C129.462 32.14 129.022 32.58 129.022 33.1178V41.1845C129.022 41.7222 129.462 42.1622 130 42.1622C130.538 42.1622 130.978 41.7222 130.978 41.1845V33.1178C130.978 32.5556 130.538 32.14 130 32.14Z" fill="#84848D"/>
<g filter="url(#filter1_d_2_447)">
<rect x="103" y="158" width="55" height="55" rx="20" fill="#F9FDFF"/>
</g>
<path d="M130.996 192.338C131.589 192.338 132.07 191.857 132.07 191.264C132.07 190.67 131.589 190.189 130.996 190.189C130.403 190.189 129.922 190.67 129.922 191.264C129.922 191.857 130.403 192.338 130.996 192.338Z" fill="#84848D"/>
<path d="M131 175C124.921 175 120 179.92 120 186C120 192.079 124.92 197 131 197C137.079 197 142 192.08 142 186C142 179.921 137.08 175 131 175ZM131 195.281C125.871 195.281 121.719 191.13 121.719 186C121.719 180.871 125.87 176.719 131 176.719C136.129 176.719 140.281 180.87 140.281 186C140.281 191.129 136.13 195.281 131 195.281Z" fill="#84848D"/>
<path d="M131 180.521C129.105 180.521 127.562 182.064 127.562 183.959C127.562 184.434 127.947 184.818 128.422 184.818C128.897 184.818 129.281 184.434 129.281 183.959C129.281 183.011 130.052 182.24 131 182.24C131.948 182.24 132.719 183.011 132.719 183.959C132.719 184.907 131.948 185.678 131 185.678C130.525 185.678 130.141 186.062 130.141 186.537V188.686C130.141 189.16 130.525 189.545 131 189.545C131.475 189.545 131.859 189.16 131.859 188.686V187.288C133.34 186.905 134.438 185.558 134.438 183.959C134.438 182.064 132.895 180.521 131 180.521Z" fill="#84848D"/>
<g filter="url(#filter2_d_2_447)">
<rect x="20" y="8" width="55" height="55" rx="20" fill="#F9FDFF"/>
</g>
<path d="M57.1406 37.2084C57.6153 37.2084 58 36.8236 58 36.349V31.3594C58 29.4639 56.4579 27.9219 54.5625 27.9219H39.4375C37.5421 27.9219 36 29.4639 36 31.3594V40.6406C36 42.5361 37.5421 44.0781 39.4375 44.0781H54.5625C56.4579 44.0781 58 42.5361 58 40.6406C58 40.166 57.6153 39.7812 57.1406 39.7812C56.666 39.7812 56.2812 40.166 56.2812 40.6406C56.2812 41.5883 55.5102 42.3594 54.5625 42.3594H39.4375C38.4898 42.3594 37.7188 41.5883 37.7188 40.6406V34.2006H56.2812V36.349C56.2812 36.8236 56.666 37.2084 57.1406 37.2084ZM37.7188 32.4818V31.3594C37.7188 30.4117 38.4898 29.6406 39.4375 29.6406H54.5625C55.5102 29.6406 56.2812 30.4117 56.2812 31.3594V32.4818H37.7188Z" fill="#84848D"/>
<g filter="url(#filter3_d_2_447)">
<rect x="20" y="83" width="55" height="55" rx="20" fill="#F9FDFF"/>
</g>
<g clip-path="url(#clip0_2_447)">
<path d="M52.8625 110.453C52.8625 109.978 52.4848 109.594 52.0188 109.594H43.3281C42.8621 109.594 42.4844 109.978 42.4844 110.453C42.4844 110.928 42.8621 111.312 43.3281 111.312H52.0188C52.4848 111.312 52.8625 110.928 52.8625 110.453Z" fill="#84848D"/>
<path d="M43.3281 113.031C42.8621 113.031 42.4844 113.416 42.4844 113.891C42.4844 114.365 42.8621 114.75 43.3281 114.75H48.6062C49.0722 114.75 49.45 114.365 49.45 113.891C49.45 113.416 49.0722 113.031 48.6062 113.031H43.3281Z" fill="#84848D"/>
<path d="M45.3141 121.281H42.4922C41.5617 121.281 40.8047 120.51 40.8047 119.562V104.438C40.8047 103.49 41.5617 102.719 42.4922 102.719H52.8656C53.7961 102.719 54.5531 103.49 54.5531 104.438L54.6466 120.25C54.6466 120.708 55.0966 120.708 55.0966 120.708C55.0966 120.708 55.5466 121.281 56.2406 109.723V104.438C56.2406 102.542 54.7266 101 52.8656 101H42.4922C40.6312 101 39.1172 102.542 39.1172 104.438V119.562C39.1172 121.458 40.6312 123 42.4922 123H45.3141C45.7801 123 46.1578 122.615 46.1578 122.141C46.1578 121.666 45.7801 121.281 45.3141 121.281Z" fill="#84848D"/>
<path d="M52.0188 106.156H43.3281C42.8621 106.156 42.4844 106.541 42.4844 107.016C42.4844 107.49 42.8621 107.875 43.3281 107.875H52.0188C52.4848 107.875 52.8625 107.49 52.8625 107.016C52.8625 106.541 52.4848 106.156 52.0188 106.156Z" fill="#84848D"/>
</g>
<g filter="url(#filter4_d_2_447)">
<rect x="20" y="158" width="55" height="55" rx="20" fill="#222223"/>
</g>
<path d="M53.7252 179.163H40.2748C39.0205 179.163 38 180.222 38 181.522V190.477C38 191.778 39.0205 192.837 40.2748 192.837H53.7252C54.9795 192.837 56 191.778 56 190.477V181.522C56 180.222 54.9795 179.163 53.7252 179.163ZM53.3698 180.685L47 185.788L40.6302 180.685H53.3698ZM53.7252 191.315H40.2748C39.8296 191.315 39.4674 190.939 39.4674 190.478V181.676L46.5515 187.352C46.6835 187.457 46.8418 187.51 47 187.51C47.1582 187.51 47.3165 187.457 47.4485 187.352L54.5326 181.676V190.477C54.5326 190.939 54.1704 191.315 53.7252 191.315Z" fill="white"/>
<g filter="url(#filter5_d_2_447)">
<rect x="103" y="83" width="55" height="55" rx="20" fill="#222223"/>
</g>
<g clip-path="url(#clip1_2_447)">
<path d="M120.498 110.964C121.869 109.593 124.1 109.593 125.472 110.964L127.732 113.225C128.014 113.507 128.361 113.699 128.74 113.787L128.74 111.03L136.566 111.03C137.505 111.03 138.388 111.396 139.052 112.06L144 117.008L138.786 122.221L134.627 118.062L129.224 118.062C127.534 118.062 125.946 117.405 124.752 116.212C121.667 113.127 120.183 111.645 120 111.462L120.498 110.964ZM125.747 115.218C126.674 116.145 127.909 116.656 129.224 116.656L135.21 116.656L138.786 120.232L142.011 117.008L138.058 113.055C137.659 112.656 137.13 112.437 136.566 112.437L130.146 112.437L130.146 113.843L134.918 113.843L134.918 115.249L129.224 115.249C128.285 115.249 127.402 114.884 126.738 114.22L124.477 111.959C123.828 111.31 122.859 111.173 122.075 111.547C123.201 112.673 124.647 114.118 125.747 115.218Z" fill="white"/>
<path d="M125.952 99.7787L135.797 99.7787L135.797 109.624L125.952 109.624L125.952 99.7787ZM127.358 108.217L134.39 108.217L134.39 101.185L131.578 101.185L131.578 103.998L130.171 103.998L130.171 101.185L127.358 101.185L127.358 108.217Z" fill="white"/>
</g>
<defs>
<filter id="filter0_d_2_447" x="83" y="0" width="95" height="95" filterUnits="userSpaceOnUse" color-interpolation-filters="sRGB">
<feFlood flood-opacity="0" result="BackgroundImageFix"/>
<feColorMatrix in="SourceAlpha" type="matrix" values="0 0 0 0 0 0 0 0 0 0 0 0 0 0 0 0 0 0 127 0" result="hardAlpha"/>
<feOffset dy="12"/>
<feGaussianBlur stdDeviation="10"/>
<feColorMatrix type="matrix" values="0 0 0 0 0.845833 0 0 0 0 0.651737 0 0 0 0 0.0775347 0 0 0 0.31 0"/>
<feBlend mode="normal" in2="BackgroundImageFix" result="effect1_dropShadow_2_447"/>
<feBlend mode="normal" in="SourceGraphic" in2="effect1_dropShadow_2_447" result="shape"/>
</filter>
<filter id="filter1_d_2_447" x="83" y="150" width="95" height="95" filterUnits="userSpaceOnUse" color-interpolation-filters="sRGB">
<feFlood flood-opacity="0" result="BackgroundImageFix"/>
<feColorMatrix in="SourceAlpha" type="matrix" values="0 0 0 0 0 0 0 0 0 0 0 0 0 0 0 0 0 0 127 0" result="hardAlpha"/>
<feOffset dy="12"/>
<feGaussianBlur stdDeviation="10"/>
<feColorMatrix type="matrix" values="0 0 0 0 0.845833 0 0 0 0 0.651737 0 0 0 0 0.0775347 0 0 0 0.31 0"/>
<feBlend mode="normal" in2="BackgroundImageFix" result="effect1_dropShadow_2_447"/>
<feBlend mode="normal" in="SourceGraphic" in2="effect1_dropShadow_2_447" result="shape"/>
</filter>
<filter id="filter2_d_2_447" x="0" y="0" width="95" height="95" filterUnits="userSpaceOnUse" color-interpolation-filters="sRGB">
<feFlood flood-opacity="0" result="BackgroundImageFix"/>
<feColorMatrix in="SourceAlpha" type="matrix" values="0 0 0 0 0 0 0 0 0 0 0 0 0 0 0 0 0 0 127 0" result="hardAlpha"/>
<feOffset dy="12"/>
<feGaussianBlur stdDeviation="10"/>
<feColorMatrix type="matrix" values="0 0 0 0 0.845833 0 0 0 0 0.651737 0 0 0 0 0.0775347 0 0 0 0.31 0"/>
<feBlend mode="normal" in2="BackgroundImageFix" result="effect1_dropShadow_2_447"/>
<feBlend mode="normal" in="SourceGraphic" in2="effect1_dropShadow_2_447" result="shape"/>
</filter>
<filter id="filter3_d_2_447" x="0" y="75" width="95" height="95" filterUnits="userSpaceOnUse" color-interpolation-filters="sRGB">
<feFlood flood-opacity="0" result="BackgroundImageFix"/>
<feColorMatrix in="SourceAlpha" type="matrix" values="0 0 0 0 0 0 0 0 0 0 0 0 0 0 0 0 0 0 127 0" result="hardAlpha"/>
<feOffset dy="12"/>
<feGaussianBlur stdDeviation="10"/>
<feColorMatrix type="matrix" values="0 0 0 0 0.845833 0 0 0 0 0.651737 0 0 0 0 0.0775347 0 0 0 0.31 0"/>
<feBlend mode="normal" in2="BackgroundImageFix" result="effect1_dropShadow_2_447"/>
<feBlend mode="normal" in="SourceGraphic" in2="effect1_dropShadow_2_447" result="shape"/>
</filter>
<filter id="filter4_d_2_447" x="0" y="150" width="95" height="95" filterUnits="userSpaceOnUse" color-interpolation-filters="sRGB">
<feFlood flood-opacity="0" result="BackgroundImageFix"/>
<feColorMatrix in="SourceAlpha" type="matrix" values="0 0 0 0 0 0 0 0 0 0 0 0 0 0 0 0 0 0 127 0" result="hardAlpha"/>
<feOffset dy="12"/>
<feGaussianBlur stdDeviation="10"/>
<feColorMatrix type="matrix" values="0 0 0 0 0.845833 0 0 0 0 0.651737 0 0 0 0 0.0775347 0 0 0 0.31 0"/>
<feBlend mode="normal" in2="BackgroundImageFix" result="effect1_dropShadow_2_447"/>
<feBlend mode="normal" in="SourceGraphic" in2="effect1_dropShadow_2_447" result="shape"/>
</filter>
<filter id="filter5_d_2_447" x="83" y="75" width="95" height="95" filterUnits="userSpaceOnUse" color-interpolation-filters="sRGB">
<feFlood flood-opacity="0" result="BackgroundImageFix"/>
<feColorMatrix in="SourceAlpha" type="matrix" values="0 0 0 0 0 0 0 0 0 0 0 0 0 0 0 0 0 0 127 0" result="hardAlpha"/>
<feOffset dy="12"/>
<feGaussianBlur stdDeviation="10"/>
<feColorMatrix type="matrix" values="0 0 0 0 0.845833 0 0 0 0 0.651737 0 0 0 0 0.0775347 0 0 0 0.31 0"/>
<feBlend mode="normal" in2="BackgroundImageFix" result="effect1_dropShadow_2_447"/>
<feBlend mode="normal" in="SourceGraphic" in2="effect1_dropShadow_2_447" result="shape"/>
</filter>
<clipPath id="clip0_2_447">
<rect width="18" height="22" fill="white" transform="translate(38 101)"/>
</clipPath>
<clipPath id="clip1_2_447">
<rect width="24" height="24" fill="white" transform="matrix(-1 -8.74228e-08 -8.74228e-08 1 144 99)"/>
</clipPath>
</defs>
</svg>
