<svg width="93" height="58" viewBox="0 0 93 58" fill="none" xmlns="http://www.w3.org/2000/svg">
<path d="M22.1087 7.32889C24.1438 7.32889 25.7935 5.68826 25.7935 3.66444C25.7935 1.64063 24.1438 0 22.1087 0C20.0737 0 18.424 1.64063 18.424 3.66444C18.424 5.68826 20.0737 7.32889 22.1087 7.32889Z" fill="#057ABC"/>
<path d="M70.011 23.6357V41.0418C70.011 44.8892 72.8788 47.8211 76.6436 47.8211C80.3708 47.8211 83.2762 44.8888 83.2753 41.1539L83.2761 23.6357C83.2763 21.106 85.3385 19.0554 87.8822 19.0552H92.4882V40.6754C92.4882 49.3778 85.3944 56.4325 76.6436 56.4325C67.8929 56.4325 60.799 49.3778 60.799 40.6754V19.0552H65.405C67.9488 19.0552 70.011 21.106 70.011 23.6357Z" fill="#057ABC"/>
<path fill-rule="evenodd" clip-rule="evenodd" d="M48.8235 5.13025H53.4294V51.8519C53.4294 54.3817 51.3673 56.4325 48.8235 56.4325H44.2175V9.7108C44.2175 7.18103 46.2796 5.13025 48.8235 5.13025Z" fill="#057ABC"/>
<path d="M9.21197 5.13025L9.21177 22.5239C12.1276 19.8969 15.8468 18.3222 19.8979 18.3222C29.2591 18.3222 36.8479 26.7305 36.8479 37.1025C36.8479 37.1816 36.8475 37.2606 36.8466 37.3395C36.8475 37.413 36.8479 37.4867 36.8479 37.5606C36.8466 48.2788 28.5992 56.4325 18.4239 56.4325C8.42825 56.4325 0.291736 48.2788 0.00767194 38.1105L0 38.1102V9.7108C0 7.16539 2.08603 5.13025 4.60599 5.13025H9.21197ZM18.2397 26.7505C12.9486 26.7505 8.65926 31.4673 8.65926 37.2857C8.65926 43.1042 12.9486 47.821 18.2397 47.821C23.5308 47.821 27.8202 43.1042 27.8202 37.2857C27.8202 31.4673 23.5308 26.7505 18.2397 26.7505Z" fill="#057ABC"/>
</svg>
