<svg width="35" height="105" viewBox="0 0 35 105" fill="none" xmlns="http://www.w3.org/2000/svg">
<path d="M0.918892 64.5859L33.6704 78.5915L33.5747 87.4373L7.24625 93.8039C6.62585 93.8598 6.03098 94.0746 5.52034 94.4269C5.0097 94.7792 4.60094 95.257 4.3344 95.813C3.03782 98.4412 2.06814 101.215 1.44648 104.073L0.494031 103.869L0.64864 89.5739C0.648521 88.6375 0.991749 87.733 1.61484 87.0274C2.23792 86.3219 3.09871 85.8631 4.03798 85.736L23.1154 82.3519L0.8235 73.4059L0.918892 64.5859ZM23.5251 29.9593C14.8427 29.8654 14.2437 41.7151 10.3218 41.5952C9.14494 41.5825 7.90194 40.4325 7.61438 38.0013C7.36306 35.1547 7.90028 32.2944 9.16855 29.7266L2.20191 28.1789C1.20753 30.6993 0.673833 33.3741 0.625639 36.0789C0.535834 44.3824 4.94398 50.3323 11.3512 50.4016C16.0847 50.4528 18.7581 46.3101 20.3746 43.1504C21.9912 39.9908 23.0372 38.801 24.5146 38.8299C26.7244 38.8538 27.6641 41.447 27.677 43.8881C27.7145 46.8972 26.9663 49.8649 25.5044 52.5049L32.6935 54.042C33.8954 51.0919 34.5197 47.9432 34.5332 44.763C34.6286 35.9429 30.2845 30.1099 23.4461 30.0102L23.5251 29.9593ZM34.4189 8.173L34.5027 0.424784L1.54333 6.8488L1.46568 14.0288C1.47051 14.7835 1.69842 15.5204 2.12141 16.149C2.54441 16.7777 3.14407 17.2707 3.84674 17.5675L34.1898 30.5655L34.2849 21.7712L29.3873 19.9618L29.5039 9.17888L34.4189 8.173ZM22.6665 17.4482L10.3707 12.8853L22.7424 10.436L22.6665 17.4482ZM1.04878 52.5762L33.8727 59.8795L33.7821 68.2605L0.957998 60.9701L1.04878 52.5762Z" fill="#DDE8EE"/>
</svg>
